<mxfile host="app.diagrams.net" modified="2024-05-30T16:44:45.053Z" agent="Mozilla/5.0 (Windows NT 10.0; Win64; x64) AppleWebKit/537.36 (KHTML, like Gecko) Chrome/125.0.0.0 Safari/537.36 Edg/125.0.0.0" etag="nUIHkdEanWKThenJ6wHm" version="24.4.10" type="device">
  <diagram name="Page-1" id="oBiilxU2Ibz0apzXLQCy">
    <mxGraphModel dx="2018" dy="705" grid="1" gridSize="10" guides="1" tooltips="1" connect="1" arrows="1" fold="1" page="1" pageScale="1" pageWidth="850" pageHeight="1100" math="0" shadow="0">
      <root>
        <mxCell id="0" />
        <mxCell id="1" parent="0" />
        <mxCell id="R0yaAyQkIgQiRJLiBUpS-1" value="&lt;b&gt;&lt;font style=&quot;font-size: 40px;&quot;&gt;Luxuria&lt;/font&gt;&lt;/b&gt;" style="ellipse;whiteSpace=wrap;html=1;" parent="1" vertex="1">
          <mxGeometry x="-50" y="290" width="450" height="340" as="geometry" />
        </mxCell>
        <mxCell id="R0yaAyQkIgQiRJLiBUpS-4" value="&lt;font style=&quot;font-size: 20px;&quot;&gt;Guest&lt;/font&gt;" style="rounded=0;whiteSpace=wrap;html=1;" parent="1" vertex="1">
          <mxGeometry x="-135" y="240" width="120" height="60" as="geometry" />
        </mxCell>
        <mxCell id="R0yaAyQkIgQiRJLiBUpS-6" value="&lt;font style=&quot;font-size: 20px;&quot;&gt;View product&lt;/font&gt;" style="text;html=1;align=center;verticalAlign=middle;whiteSpace=wrap;rounded=0;" parent="1" vertex="1">
          <mxGeometry x="-250" y="117.5" width="150" height="60" as="geometry" />
        </mxCell>
        <mxCell id="R0yaAyQkIgQiRJLiBUpS-10" value="&lt;font style=&quot;font-size: 20px;&quot;&gt;Login/Register&amp;nbsp;&lt;/font&gt;" style="text;html=1;align=center;verticalAlign=middle;whiteSpace=wrap;rounded=0;" parent="1" vertex="1">
          <mxGeometry x="-30" y="115" width="145" height="65" as="geometry" />
        </mxCell>
        <mxCell id="R0yaAyQkIgQiRJLiBUpS-13" value="&lt;font style=&quot;font-size: 20px;&quot;&gt;Customer&lt;/font&gt;" style="rounded=0;whiteSpace=wrap;html=1;" parent="1" vertex="1">
          <mxGeometry x="472.5" y="430" width="120" height="60" as="geometry" />
        </mxCell>
        <mxCell id="R0yaAyQkIgQiRJLiBUpS-14" value="&lt;font style=&quot;font-size: 20px;&quot;&gt;Sent/View request&lt;/font&gt;" style="text;html=1;align=center;verticalAlign=middle;whiteSpace=wrap;rounded=0;" parent="1" vertex="1">
          <mxGeometry x="712.5" y="387.5" width="207.5" height="45" as="geometry" />
        </mxCell>
        <mxCell id="R0yaAyQkIgQiRJLiBUpS-17" value="&lt;font style=&quot;font-size: 20px;&quot;&gt;View order detail&lt;/font&gt;" style="text;html=1;align=center;verticalAlign=middle;whiteSpace=wrap;rounded=0;" parent="1" vertex="1">
          <mxGeometry x="712.5" y="337.5" width="200" height="50" as="geometry" />
        </mxCell>
        <mxCell id="R0yaAyQkIgQiRJLiBUpS-18" value="&lt;font style=&quot;font-size: 20px;&quot;&gt;View order process&lt;/font&gt;" style="text;html=1;align=center;verticalAlign=middle;whiteSpace=wrap;rounded=0;" parent="1" vertex="1">
          <mxGeometry x="717.5" y="442.5" width="210" height="35" as="geometry" />
        </mxCell>
        <mxCell id="R0yaAyQkIgQiRJLiBUpS-19" value="&lt;font style=&quot;font-size: 20px;&quot;&gt;Decide on the order&lt;/font&gt;" style="text;html=1;align=center;verticalAlign=middle;whiteSpace=wrap;rounded=0;" parent="1" vertex="1">
          <mxGeometry x="732.5" y="490" width="195" height="45" as="geometry" />
        </mxCell>
        <mxCell id="R0yaAyQkIgQiRJLiBUpS-20" value="&lt;font style=&quot;font-size: 20px;&quot;&gt;Cancel order&lt;/font&gt;" style="text;html=1;align=center;verticalAlign=middle;whiteSpace=wrap;rounded=0;" parent="1" vertex="1">
          <mxGeometry x="732.5" y="541" width="152.5" height="38" as="geometry" />
        </mxCell>
        <mxCell id="R0yaAyQkIgQiRJLiBUpS-30" value="&lt;font style=&quot;font-size: 20px;&quot;&gt;Sales Staff&lt;/font&gt;" style="rounded=0;whiteSpace=wrap;html=1;" parent="1" vertex="1">
          <mxGeometry x="-280" y="432.5" width="120" height="60" as="geometry" />
        </mxCell>
        <mxCell id="R0yaAyQkIgQiRJLiBUpS-31" value="&lt;font style=&quot;font-size: 20px;&quot;&gt;View request&lt;/font&gt;" style="text;html=1;align=center;verticalAlign=middle;whiteSpace=wrap;rounded=0;" parent="1" vertex="1">
          <mxGeometry x="-565" y="277.5" width="140" height="50" as="geometry" />
        </mxCell>
        <mxCell id="R0yaAyQkIgQiRJLiBUpS-32" value="&lt;font style=&quot;font-size: 20px;&quot;&gt;Create&amp;nbsp;Order&lt;/font&gt;" style="text;html=1;align=center;verticalAlign=middle;whiteSpace=wrap;rounded=0;" parent="1" vertex="1">
          <mxGeometry x="-565" y="335" width="140" height="50" as="geometry" />
        </mxCell>
        <mxCell id="R0yaAyQkIgQiRJLiBUpS-33" value="&lt;font style=&quot;font-size: 20px;&quot;&gt;View all&amp;nbsp;order detail&lt;/font&gt;" style="text;html=1;align=center;verticalAlign=middle;whiteSpace=wrap;rounded=0;" parent="1" vertex="1">
          <mxGeometry x="-583.75" y="380" width="177.5" height="60" as="geometry" />
        </mxCell>
        <mxCell id="R0yaAyQkIgQiRJLiBUpS-38" value="&lt;font style=&quot;font-size: 20px;&quot;&gt;View order process&lt;/font&gt;" style="text;html=1;align=center;verticalAlign=middle;whiteSpace=wrap;rounded=0;" parent="1" vertex="1">
          <mxGeometry x="-590" y="432.5" width="183.75" height="50" as="geometry" />
        </mxCell>
        <mxCell id="R0yaAyQkIgQiRJLiBUpS-40" value="&lt;font style=&quot;font-size: 20px;&quot;&gt;Cancel order&lt;/font&gt;" style="text;html=1;align=center;verticalAlign=middle;whiteSpace=wrap;rounded=0;" parent="1" vertex="1">
          <mxGeometry x="-551.25" y="482.5" width="145" height="40" as="geometry" />
        </mxCell>
        <mxCell id="R0yaAyQkIgQiRJLiBUpS-41" value="&lt;font style=&quot;font-size: 20px;&quot;&gt;Submit order&#39;s price to manager&lt;/font&gt;" style="text;html=1;align=center;verticalAlign=middle;whiteSpace=wrap;rounded=0;" parent="1" vertex="1">
          <mxGeometry x="-566.25" y="522.5" width="160" height="55" as="geometry" />
        </mxCell>
        <mxCell id="R0yaAyQkIgQiRJLiBUpS-42" value="&lt;font style=&quot;font-size: 20px;&quot;&gt;Export receipt and warranty&lt;/font&gt;" style="text;html=1;align=center;verticalAlign=middle;whiteSpace=wrap;rounded=0;" parent="1" vertex="1">
          <mxGeometry x="-551.25" y="597.5" width="145" height="50" as="geometry" />
        </mxCell>
        <mxCell id="R0yaAyQkIgQiRJLiBUpS-56" value="&lt;font style=&quot;font-size: 20px;&quot;&gt;View all order detail&lt;/font&gt;" style="text;html=1;align=center;verticalAlign=middle;whiteSpace=wrap;rounded=0;" parent="1" vertex="1">
          <mxGeometry x="190" y="110" width="180" height="65" as="geometry" />
        </mxCell>
        <mxCell id="R0yaAyQkIgQiRJLiBUpS-58" value="&lt;font style=&quot;font-size: 20px;&quot;&gt;View order process&lt;/font&gt;" style="text;html=1;align=center;verticalAlign=middle;whiteSpace=wrap;rounded=0;" parent="1" vertex="1">
          <mxGeometry x="387.5" y="115" width="125" height="60" as="geometry" />
        </mxCell>
        <mxCell id="R0yaAyQkIgQiRJLiBUpS-59" value="&lt;font style=&quot;font-size: 20px;&quot;&gt;Approve or decline order&#39;s price&lt;/font&gt;" style="text;html=1;align=center;verticalAlign=middle;whiteSpace=wrap;rounded=0;" parent="1" vertex="1">
          <mxGeometry x="530" y="110" width="187.5" height="70" as="geometry" />
        </mxCell>
        <mxCell id="R0yaAyQkIgQiRJLiBUpS-60" style="edgeStyle=orthogonalEdgeStyle;rounded=0;orthogonalLoop=1;jettySize=auto;html=1;exitX=0.5;exitY=1;exitDx=0;exitDy=0;" parent="1" edge="1">
          <mxGeometry relative="1" as="geometry">
            <mxPoint x="-182.50000000000045" y="197.5" as="sourcePoint" />
            <mxPoint x="-182.50000000000045" y="197.5" as="targetPoint" />
          </mxGeometry>
        </mxCell>
        <mxCell id="R0yaAyQkIgQiRJLiBUpS-65" value="&lt;font style=&quot;font-size: 20px;&quot;&gt;Manager&lt;/font&gt;" style="rounded=0;whiteSpace=wrap;html=1;" parent="1" vertex="1">
          <mxGeometry x="390" y="245" width="120" height="60" as="geometry" />
        </mxCell>
        <mxCell id="R0yaAyQkIgQiRJLiBUpS-69" value="&lt;font style=&quot;font-size: 20px;&quot;&gt;Design Staff&lt;/font&gt;" style="rounded=0;whiteSpace=wrap;html=1;" parent="1" vertex="1">
          <mxGeometry x="462.5" y="660" width="130" height="50" as="geometry" />
        </mxCell>
        <mxCell id="R0yaAyQkIgQiRJLiBUpS-70" value="&lt;font style=&quot;font-size: 20px;&quot;&gt;View &#39;approved&#39; order detail&lt;/font&gt;" style="text;html=1;align=center;verticalAlign=middle;whiteSpace=wrap;rounded=0;" parent="1" vertex="1">
          <mxGeometry x="670" y="655" width="170" height="60" as="geometry" />
        </mxCell>
        <mxCell id="R0yaAyQkIgQiRJLiBUpS-71" value="&lt;font style=&quot;font-size: 20px;&quot;&gt;Upload 3D design for customer order&lt;/font&gt;" style="text;html=1;align=center;verticalAlign=middle;whiteSpace=wrap;rounded=0;" parent="1" vertex="1">
          <mxGeometry x="655" y="760" width="200" height="60" as="geometry" />
        </mxCell>
        <mxCell id="R0yaAyQkIgQiRJLiBUpS-74" value="&lt;font style=&quot;font-size: 20px;&quot;&gt;Production Staff&lt;/font&gt;" style="rounded=0;whiteSpace=wrap;html=1;" parent="1" vertex="1">
          <mxGeometry x="-250" y="640" width="120" height="60" as="geometry" />
        </mxCell>
        <mxCell id="R0yaAyQkIgQiRJLiBUpS-75" value="&lt;font style=&quot;font-size: 20px;&quot;&gt;View &#39;approved 3D design&#39; order detail&lt;/font&gt;" style="text;html=1;align=center;verticalAlign=middle;whiteSpace=wrap;rounded=0;" parent="1" vertex="1">
          <mxGeometry x="-460" y="750" width="260" height="70" as="geometry" />
        </mxCell>
        <mxCell id="R0yaAyQkIgQiRJLiBUpS-77" value="&lt;font style=&quot;font-size: 20px;&quot;&gt;Report finished order&lt;/font&gt;" style="text;html=1;align=center;verticalAlign=middle;whiteSpace=wrap;rounded=0;" parent="1" vertex="1">
          <mxGeometry x="-130" y="755" width="173.75" height="60" as="geometry" />
        </mxCell>
        <mxCell id="R0yaAyQkIgQiRJLiBUpS-80" value="&lt;font style=&quot;font-size: 20px;&quot;&gt;Admin&lt;/font&gt;" style="rounded=0;whiteSpace=wrap;html=1;" parent="1" vertex="1">
          <mxGeometry x="115" y="740" width="120" height="70" as="geometry" />
        </mxCell>
        <mxCell id="R0yaAyQkIgQiRJLiBUpS-81" value="&lt;font style=&quot;font-size: 20px;&quot;&gt;View all order detail&lt;/font&gt;" style="text;html=1;align=center;verticalAlign=middle;whiteSpace=wrap;rounded=0;" parent="1" vertex="1">
          <mxGeometry x="-70" y="895" width="160" height="65" as="geometry" />
        </mxCell>
        <mxCell id="R0yaAyQkIgQiRJLiBUpS-83" value="&lt;font style=&quot;font-size: 20px;&quot;&gt;View order process&lt;/font&gt;" style="text;html=1;align=center;verticalAlign=middle;whiteSpace=wrap;rounded=0;" parent="1" vertex="1">
          <mxGeometry x="90" y="895" width="136.25" height="55" as="geometry" />
        </mxCell>
        <mxCell id="R0yaAyQkIgQiRJLiBUpS-85" value="&lt;font style=&quot;font-size: 20px;&quot;&gt;View dashboard&lt;/font&gt;" style="text;html=1;align=center;verticalAlign=middle;whiteSpace=wrap;rounded=0;" parent="1" vertex="1">
          <mxGeometry x="235" y="890" width="142.5" height="60" as="geometry" />
        </mxCell>
        <mxCell id="_u0D6Ztj07QtTN1b-ekL-14" value="" style="endArrow=none;html=1;rounded=0;entryX=0.5;entryY=0;entryDx=0;entryDy=0;exitX=0.5;exitY=1;exitDx=0;exitDy=0;" parent="1" source="R0yaAyQkIgQiRJLiBUpS-80" target="R0yaAyQkIgQiRJLiBUpS-81" edge="1">
          <mxGeometry width="50" height="50" relative="1" as="geometry">
            <mxPoint x="180" y="1045" as="sourcePoint" />
            <mxPoint x="60" y="980" as="targetPoint" />
          </mxGeometry>
        </mxCell>
        <mxCell id="_u0D6Ztj07QtTN1b-ekL-88" style="edgeStyle=orthogonalEdgeStyle;rounded=0;orthogonalLoop=1;jettySize=auto;html=1;exitX=0.5;exitY=1;exitDx=0;exitDy=0;" parent="1" source="R0yaAyQkIgQiRJLiBUpS-65" target="R0yaAyQkIgQiRJLiBUpS-65" edge="1">
          <mxGeometry relative="1" as="geometry" />
        </mxCell>
        <mxCell id="RbELbqOotKgwu4xD1EX0-3" value="" style="endArrow=none;html=1;rounded=0;entryX=0;entryY=0.5;entryDx=0;entryDy=0;exitX=1;exitY=0.5;exitDx=0;exitDy=0;" parent="1" source="R0yaAyQkIgQiRJLiBUpS-38" target="R0yaAyQkIgQiRJLiBUpS-30" edge="1">
          <mxGeometry width="50" height="50" relative="1" as="geometry">
            <mxPoint x="-417.5" y="515" as="sourcePoint" />
            <mxPoint x="-367.5" y="465" as="targetPoint" />
          </mxGeometry>
        </mxCell>
        <mxCell id="RbELbqOotKgwu4xD1EX0-4" value="" style="endArrow=none;html=1;rounded=0;entryX=0;entryY=0.5;entryDx=0;entryDy=0;exitX=1;exitY=0.5;exitDx=0;exitDy=0;" parent="1" source="R0yaAyQkIgQiRJLiBUpS-40" target="R0yaAyQkIgQiRJLiBUpS-30" edge="1">
          <mxGeometry width="50" height="50" relative="1" as="geometry">
            <mxPoint x="-417.5" y="515" as="sourcePoint" />
            <mxPoint x="-367.5" y="465" as="targetPoint" />
          </mxGeometry>
        </mxCell>
        <mxCell id="RbELbqOotKgwu4xD1EX0-5" value="" style="endArrow=none;html=1;rounded=0;entryX=0;entryY=0.5;entryDx=0;entryDy=0;exitX=1;exitY=0.5;exitDx=0;exitDy=0;" parent="1" source="R0yaAyQkIgQiRJLiBUpS-41" target="R0yaAyQkIgQiRJLiBUpS-30" edge="1">
          <mxGeometry width="50" height="50" relative="1" as="geometry">
            <mxPoint x="-417.5" y="515" as="sourcePoint" />
            <mxPoint x="-367.5" y="465" as="targetPoint" />
          </mxGeometry>
        </mxCell>
        <mxCell id="RbELbqOotKgwu4xD1EX0-6" value="" style="endArrow=none;html=1;rounded=0;entryX=0;entryY=0.5;entryDx=0;entryDy=0;exitX=1;exitY=0.5;exitDx=0;exitDy=0;" parent="1" source="R0yaAyQkIgQiRJLiBUpS-42" target="R0yaAyQkIgQiRJLiBUpS-30" edge="1">
          <mxGeometry width="50" height="50" relative="1" as="geometry">
            <mxPoint x="-417.5" y="515" as="sourcePoint" />
            <mxPoint x="-367.5" y="465" as="targetPoint" />
          </mxGeometry>
        </mxCell>
        <mxCell id="RbELbqOotKgwu4xD1EX0-7" value="" style="endArrow=none;html=1;rounded=0;exitX=0;exitY=0.5;exitDx=0;exitDy=0;entryX=1;entryY=0.5;entryDx=0;entryDy=0;" parent="1" source="R0yaAyQkIgQiRJLiBUpS-30" target="R0yaAyQkIgQiRJLiBUpS-33" edge="1">
          <mxGeometry width="50" height="50" relative="1" as="geometry">
            <mxPoint x="-347.5" y="475" as="sourcePoint" />
            <mxPoint x="-297.5" y="425" as="targetPoint" />
          </mxGeometry>
        </mxCell>
        <mxCell id="RbELbqOotKgwu4xD1EX0-8" value="" style="endArrow=none;html=1;rounded=0;exitX=0;exitY=0.5;exitDx=0;exitDy=0;entryX=1;entryY=0.5;entryDx=0;entryDy=0;" parent="1" source="R0yaAyQkIgQiRJLiBUpS-30" target="R0yaAyQkIgQiRJLiBUpS-32" edge="1">
          <mxGeometry width="50" height="50" relative="1" as="geometry">
            <mxPoint x="-347.5" y="475" as="sourcePoint" />
            <mxPoint x="-297.5" y="425" as="targetPoint" />
          </mxGeometry>
        </mxCell>
        <mxCell id="RbELbqOotKgwu4xD1EX0-9" value="" style="endArrow=none;html=1;rounded=0;exitX=0;exitY=0.5;exitDx=0;exitDy=0;entryX=1;entryY=0.5;entryDx=0;entryDy=0;" parent="1" source="R0yaAyQkIgQiRJLiBUpS-30" target="R0yaAyQkIgQiRJLiBUpS-31" edge="1">
          <mxGeometry width="50" height="50" relative="1" as="geometry">
            <mxPoint x="-347.5" y="475" as="sourcePoint" />
            <mxPoint x="-297.5" y="425" as="targetPoint" />
          </mxGeometry>
        </mxCell>
        <mxCell id="RbELbqOotKgwu4xD1EX0-13" value="" style="endArrow=classic;html=1;rounded=0;exitX=1;exitY=0.5;exitDx=0;exitDy=0;entryX=0;entryY=0.5;entryDx=0;entryDy=0;" parent="1" source="R0yaAyQkIgQiRJLiBUpS-30" target="R0yaAyQkIgQiRJLiBUpS-1" edge="1">
          <mxGeometry width="50" height="50" relative="1" as="geometry">
            <mxPoint x="-50" y="530" as="sourcePoint" />
            <mxPoint y="480" as="targetPoint" />
          </mxGeometry>
        </mxCell>
        <mxCell id="RbELbqOotKgwu4xD1EX0-14" value="" style="endArrow=none;html=1;rounded=0;exitX=0.5;exitY=0;exitDx=0;exitDy=0;entryX=0.5;entryY=1;entryDx=0;entryDy=0;" parent="1" source="R0yaAyQkIgQiRJLiBUpS-75" target="R0yaAyQkIgQiRJLiBUpS-74" edge="1">
          <mxGeometry width="50" height="50" relative="1" as="geometry">
            <mxPoint x="-190" y="720" as="sourcePoint" />
            <mxPoint x="-140" y="670" as="targetPoint" />
          </mxGeometry>
        </mxCell>
        <mxCell id="RbELbqOotKgwu4xD1EX0-16" value="" style="endArrow=none;html=1;rounded=0;entryX=0.5;entryY=1;entryDx=0;entryDy=0;exitX=0.5;exitY=0;exitDx=0;exitDy=0;" parent="1" source="R0yaAyQkIgQiRJLiBUpS-83" target="R0yaAyQkIgQiRJLiBUpS-80" edge="1">
          <mxGeometry width="50" height="50" relative="1" as="geometry">
            <mxPoint x="5" y="895" as="sourcePoint" />
            <mxPoint x="55" y="845" as="targetPoint" />
          </mxGeometry>
        </mxCell>
        <mxCell id="RbELbqOotKgwu4xD1EX0-17" value="" style="endArrow=none;html=1;rounded=0;entryX=0.5;entryY=0;entryDx=0;entryDy=0;exitX=0.5;exitY=1;exitDx=0;exitDy=0;" parent="1" source="R0yaAyQkIgQiRJLiBUpS-80" target="R0yaAyQkIgQiRJLiBUpS-85" edge="1">
          <mxGeometry width="50" height="50" relative="1" as="geometry">
            <mxPoint x="155" y="905" as="sourcePoint" />
            <mxPoint x="205" y="855" as="targetPoint" />
          </mxGeometry>
        </mxCell>
        <mxCell id="RbELbqOotKgwu4xD1EX0-20" value="" style="endArrow=none;html=1;rounded=0;exitX=1;exitY=0.5;exitDx=0;exitDy=0;entryX=0;entryY=0.5;entryDx=0;entryDy=0;" parent="1" source="R0yaAyQkIgQiRJLiBUpS-13" target="R0yaAyQkIgQiRJLiBUpS-17" edge="1">
          <mxGeometry width="50" height="50" relative="1" as="geometry">
            <mxPoint x="530" y="465" as="sourcePoint" />
            <mxPoint x="590" y="485" as="targetPoint" />
          </mxGeometry>
        </mxCell>
        <mxCell id="RbELbqOotKgwu4xD1EX0-21" value="" style="endArrow=none;html=1;rounded=0;entryX=0;entryY=0.5;entryDx=0;entryDy=0;exitX=1;exitY=0.5;exitDx=0;exitDy=0;" parent="1" source="R0yaAyQkIgQiRJLiBUpS-13" target="R0yaAyQkIgQiRJLiBUpS-14" edge="1">
          <mxGeometry width="50" height="50" relative="1" as="geometry">
            <mxPoint x="530" y="465" as="sourcePoint" />
            <mxPoint x="590" y="485" as="targetPoint" />
          </mxGeometry>
        </mxCell>
        <mxCell id="RbELbqOotKgwu4xD1EX0-22" value="" style="endArrow=none;html=1;rounded=0;entryX=0;entryY=0.5;entryDx=0;entryDy=0;exitX=1;exitY=0.5;exitDx=0;exitDy=0;" parent="1" source="R0yaAyQkIgQiRJLiBUpS-13" target="R0yaAyQkIgQiRJLiBUpS-18" edge="1">
          <mxGeometry width="50" height="50" relative="1" as="geometry">
            <mxPoint x="530" y="465" as="sourcePoint" />
            <mxPoint x="590" y="485" as="targetPoint" />
          </mxGeometry>
        </mxCell>
        <mxCell id="RbELbqOotKgwu4xD1EX0-23" value="" style="endArrow=none;html=1;rounded=0;entryX=0;entryY=0.5;entryDx=0;entryDy=0;exitX=1;exitY=0.5;exitDx=0;exitDy=0;" parent="1" source="R0yaAyQkIgQiRJLiBUpS-13" target="R0yaAyQkIgQiRJLiBUpS-19" edge="1">
          <mxGeometry width="50" height="50" relative="1" as="geometry">
            <mxPoint x="530" y="465" as="sourcePoint" />
            <mxPoint x="590" y="485" as="targetPoint" />
          </mxGeometry>
        </mxCell>
        <mxCell id="RbELbqOotKgwu4xD1EX0-24" value="" style="endArrow=none;html=1;rounded=0;exitX=1;exitY=0.5;exitDx=0;exitDy=0;entryX=0;entryY=0.5;entryDx=0;entryDy=0;" parent="1" source="R0yaAyQkIgQiRJLiBUpS-13" target="R0yaAyQkIgQiRJLiBUpS-20" edge="1">
          <mxGeometry width="50" height="50" relative="1" as="geometry">
            <mxPoint x="530" y="465" as="sourcePoint" />
            <mxPoint x="590" y="485" as="targetPoint" />
          </mxGeometry>
        </mxCell>
        <mxCell id="RbELbqOotKgwu4xD1EX0-25" value="" style="endArrow=classic;html=1;rounded=0;exitX=0;exitY=0.5;exitDx=0;exitDy=0;entryX=1;entryY=0.5;entryDx=0;entryDy=0;" parent="1" source="R0yaAyQkIgQiRJLiBUpS-13" target="R0yaAyQkIgQiRJLiBUpS-1" edge="1">
          <mxGeometry width="50" height="50" relative="1" as="geometry">
            <mxPoint x="410" y="450" as="sourcePoint" />
            <mxPoint x="460" y="400" as="targetPoint" />
          </mxGeometry>
        </mxCell>
        <mxCell id="RbELbqOotKgwu4xD1EX0-29" value="" style="endArrow=none;html=1;rounded=0;entryX=0;entryY=0.5;entryDx=0;entryDy=0;exitX=1;exitY=0.5;exitDx=0;exitDy=0;" parent="1" source="R0yaAyQkIgQiRJLiBUpS-69" target="R0yaAyQkIgQiRJLiBUpS-70" edge="1">
          <mxGeometry width="50" height="50" relative="1" as="geometry">
            <mxPoint x="482.5" y="610" as="sourcePoint" />
            <mxPoint x="532.5" y="560" as="targetPoint" />
          </mxGeometry>
        </mxCell>
        <mxCell id="RbELbqOotKgwu4xD1EX0-30" value="" style="endArrow=none;html=1;rounded=0;exitX=0;exitY=0.5;exitDx=0;exitDy=0;entryX=1;entryY=0.5;entryDx=0;entryDy=0;" parent="1" source="R0yaAyQkIgQiRJLiBUpS-71" target="R0yaAyQkIgQiRJLiBUpS-69" edge="1">
          <mxGeometry width="50" height="50" relative="1" as="geometry">
            <mxPoint x="412.5" y="630" as="sourcePoint" />
            <mxPoint x="462.5" y="580" as="targetPoint" />
          </mxGeometry>
        </mxCell>
        <mxCell id="RbELbqOotKgwu4xD1EX0-32" value="" style="endArrow=none;html=1;rounded=0;exitX=0.5;exitY=0;exitDx=0;exitDy=0;entryX=0.5;entryY=1;entryDx=0;entryDy=0;" parent="1" source="R0yaAyQkIgQiRJLiBUpS-77" target="R0yaAyQkIgQiRJLiBUpS-74" edge="1">
          <mxGeometry width="50" height="50" relative="1" as="geometry">
            <mxPoint x="-150" y="770" as="sourcePoint" />
            <mxPoint x="-100" y="720" as="targetPoint" />
          </mxGeometry>
        </mxCell>
        <mxCell id="RbELbqOotKgwu4xD1EX0-33" value="" style="endArrow=classic;html=1;rounded=0;exitX=1;exitY=0;exitDx=0;exitDy=0;entryX=0.124;entryY=0.843;entryDx=0;entryDy=0;entryPerimeter=0;" parent="1" source="R0yaAyQkIgQiRJLiBUpS-74" target="R0yaAyQkIgQiRJLiBUpS-1" edge="1">
          <mxGeometry width="50" height="50" relative="1" as="geometry">
            <mxPoint x="-140" y="760" as="sourcePoint" />
            <mxPoint x="-90" y="710" as="targetPoint" />
          </mxGeometry>
        </mxCell>
        <mxCell id="RbELbqOotKgwu4xD1EX0-35" value="" style="endArrow=classic;html=1;rounded=0;exitX=0.5;exitY=0;exitDx=0;exitDy=0;entryX=0.5;entryY=1;entryDx=0;entryDy=0;" parent="1" source="R0yaAyQkIgQiRJLiBUpS-80" target="R0yaAyQkIgQiRJLiBUpS-1" edge="1">
          <mxGeometry width="50" height="50" relative="1" as="geometry">
            <mxPoint x="190" y="750" as="sourcePoint" />
            <mxPoint x="240" y="700" as="targetPoint" />
          </mxGeometry>
        </mxCell>
        <mxCell id="RbELbqOotKgwu4xD1EX0-36" value="" style="endArrow=classic;html=1;rounded=0;exitX=0;exitY=0;exitDx=0;exitDy=0;" parent="1" source="R0yaAyQkIgQiRJLiBUpS-69" target="R0yaAyQkIgQiRJLiBUpS-1" edge="1">
          <mxGeometry width="50" height="50" relative="1" as="geometry">
            <mxPoint x="370" y="690" as="sourcePoint" />
            <mxPoint x="420" y="640" as="targetPoint" />
          </mxGeometry>
        </mxCell>
        <mxCell id="RbELbqOotKgwu4xD1EX0-39" value="" style="endArrow=classic;html=1;rounded=0;exitX=0.5;exitY=1;exitDx=0;exitDy=0;" parent="1" source="R0yaAyQkIgQiRJLiBUpS-65" target="R0yaAyQkIgQiRJLiBUpS-1" edge="1">
          <mxGeometry width="50" height="50" relative="1" as="geometry">
            <mxPoint x="260" y="230" as="sourcePoint" />
            <mxPoint x="310" y="180" as="targetPoint" />
          </mxGeometry>
        </mxCell>
        <mxCell id="RbELbqOotKgwu4xD1EX0-40" value="" style="endArrow=none;html=1;rounded=0;exitX=0.5;exitY=0;exitDx=0;exitDy=0;entryX=0.5;entryY=1;entryDx=0;entryDy=0;" parent="1" source="R0yaAyQkIgQiRJLiBUpS-65" target="R0yaAyQkIgQiRJLiBUpS-58" edge="1">
          <mxGeometry width="50" height="50" relative="1" as="geometry">
            <mxPoint x="380" y="150" as="sourcePoint" />
            <mxPoint x="430" y="100" as="targetPoint" />
          </mxGeometry>
        </mxCell>
        <mxCell id="RbELbqOotKgwu4xD1EX0-41" value="" style="endArrow=none;html=1;rounded=0;exitX=0.5;exitY=0;exitDx=0;exitDy=0;entryX=0.5;entryY=1;entryDx=0;entryDy=0;" parent="1" source="R0yaAyQkIgQiRJLiBUpS-65" target="R0yaAyQkIgQiRJLiBUpS-56" edge="1">
          <mxGeometry width="50" height="50" relative="1" as="geometry">
            <mxPoint x="380" y="170" as="sourcePoint" />
            <mxPoint x="430" y="120" as="targetPoint" />
          </mxGeometry>
        </mxCell>
        <mxCell id="RbELbqOotKgwu4xD1EX0-42" value="" style="endArrow=none;html=1;rounded=0;entryX=0.5;entryY=0;entryDx=0;entryDy=0;exitX=0.5;exitY=1;exitDx=0;exitDy=0;" parent="1" source="R0yaAyQkIgQiRJLiBUpS-59" target="R0yaAyQkIgQiRJLiBUpS-65" edge="1">
          <mxGeometry width="50" height="50" relative="1" as="geometry">
            <mxPoint x="380" y="170" as="sourcePoint" />
            <mxPoint x="430" y="120" as="targetPoint" />
          </mxGeometry>
        </mxCell>
        <mxCell id="RbELbqOotKgwu4xD1EX0-43" value="" style="endArrow=classic;html=1;rounded=0;exitX=0.5;exitY=1;exitDx=0;exitDy=0;" parent="1" source="R0yaAyQkIgQiRJLiBUpS-4" target="R0yaAyQkIgQiRJLiBUpS-1" edge="1">
          <mxGeometry width="50" height="50" relative="1" as="geometry">
            <mxPoint x="-70" y="290" as="sourcePoint" />
            <mxPoint x="-20" y="240" as="targetPoint" />
          </mxGeometry>
        </mxCell>
        <mxCell id="RbELbqOotKgwu4xD1EX0-44" value="" style="endArrow=none;html=1;rounded=0;exitX=0.5;exitY=0;exitDx=0;exitDy=0;entryX=0.5;entryY=1;entryDx=0;entryDy=0;" parent="1" source="R0yaAyQkIgQiRJLiBUpS-4" target="R0yaAyQkIgQiRJLiBUpS-6" edge="1">
          <mxGeometry width="50" height="50" relative="1" as="geometry">
            <mxPoint x="-100" y="280" as="sourcePoint" />
            <mxPoint x="-50" y="230" as="targetPoint" />
          </mxGeometry>
        </mxCell>
        <mxCell id="RbELbqOotKgwu4xD1EX0-45" value="" style="endArrow=none;html=1;rounded=0;exitX=0.5;exitY=0;exitDx=0;exitDy=0;entryX=0.5;entryY=1;entryDx=0;entryDy=0;" parent="1" source="R0yaAyQkIgQiRJLiBUpS-4" target="R0yaAyQkIgQiRJLiBUpS-10" edge="1">
          <mxGeometry width="50" height="50" relative="1" as="geometry">
            <mxPoint x="-110" y="270" as="sourcePoint" />
            <mxPoint x="-60" y="220" as="targetPoint" />
          </mxGeometry>
        </mxCell>
        <mxCell id="xF9sPIeKijyF2qx9yic--1" value="&lt;span style=&quot;font-size: 20px;&quot;&gt;View request&lt;/span&gt;" style="text;html=1;align=center;verticalAlign=middle;whiteSpace=wrap;rounded=0;" vertex="1" parent="1">
          <mxGeometry x="370" y="905" width="210" height="50" as="geometry" />
        </mxCell>
        <mxCell id="xF9sPIeKijyF2qx9yic--2" style="edgeStyle=orthogonalEdgeStyle;rounded=0;orthogonalLoop=1;jettySize=auto;html=1;exitX=0.5;exitY=1;exitDx=0;exitDy=0;" edge="1" parent="1" source="R0yaAyQkIgQiRJLiBUpS-81" target="R0yaAyQkIgQiRJLiBUpS-81">
          <mxGeometry relative="1" as="geometry" />
        </mxCell>
        <mxCell id="xF9sPIeKijyF2qx9yic--3" value="" style="endArrow=none;html=1;rounded=0;exitX=0.5;exitY=0;exitDx=0;exitDy=0;entryX=0.5;entryY=1;entryDx=0;entryDy=0;" edge="1" parent="1" source="xF9sPIeKijyF2qx9yic--1" target="R0yaAyQkIgQiRJLiBUpS-80">
          <mxGeometry width="50" height="50" relative="1" as="geometry">
            <mxPoint x="410" y="900" as="sourcePoint" />
            <mxPoint x="460" y="850" as="targetPoint" />
          </mxGeometry>
        </mxCell>
      </root>
    </mxGraphModel>
  </diagram>
</mxfile>
